<svg width="50" height="52" viewBox="0 0 50 52" fill="none" xmlns="http://www.w3.org/2000/svg">
<path d="M6.25001 15.1666H43.75C44.3025 15.1666 44.8324 14.9383 45.2231 14.532C45.6138 14.1257 45.8333 13.5746 45.8333 12.9999C45.8333 12.4253 45.6138 11.8742 45.2231 11.4679C44.8324 11.0615 44.3025 10.8333 43.75 10.8333H6.25001C5.69747 10.8333 5.16757 11.0615 4.77687 11.4679C4.38617 11.8742 4.16667 12.4253 4.16667 12.9999C4.16667 13.5746 4.38617 14.1257 4.77687 14.532C5.16757 14.9383 5.69747 15.1666 6.25001 15.1666ZM14.5833 19.4999C14.0308 19.4999 13.5009 19.7282 13.1102 20.1345C12.7195 20.5409 12.5 21.0919 12.5 21.6666C12.5 22.2412 12.7195 22.7923 13.1102 23.1987C13.5009 23.605 14.0308 23.8333 14.5833 23.8333H35.4167C35.9692 23.8333 36.4991 23.605 36.8898 23.1987C37.2805 22.7923 37.5 22.2412 37.5 21.6666C37.5 21.0919 37.2805 20.5409 36.8898 20.1345C36.4991 19.7282 35.9692 19.4999 35.4167 19.4999H14.5833ZM43.75 28.1666H6.25001C5.69747 28.1666 5.16757 28.3949 4.77687 28.8012C4.38617 29.2075 4.16667 29.7586 4.16667 30.3333C4.16667 30.9079 4.38617 31.459 4.77687 31.8653C5.16757 32.2716 5.69747 32.4999 6.25001 32.4999H43.75C44.3025 32.4999 44.8324 32.2716 45.2231 31.8653C45.6138 31.459 45.8333 30.9079 45.8333 30.3333C45.8333 29.7586 45.6138 29.2075 45.2231 28.8012C44.8324 28.3949 44.3025 28.1666 43.75 28.1666ZM35.4167 36.8333H14.5833C14.0308 36.8333 13.5009 37.0615 13.1102 37.4679C12.7195 37.8742 12.5 38.4253 12.5 38.9999C12.5 39.5746 12.7195 40.1257 13.1102 40.532C13.5009 40.9383 14.0308 41.1666 14.5833 41.1666H35.4167C35.9692 41.1666 36.4991 40.9383 36.8898 40.532C37.2805 40.1257 37.5 39.5746 37.5 38.9999C37.5 38.4253 37.2805 37.8742 36.8898 37.4679C36.4991 37.0615 35.9692 36.8333 35.4167 36.8333Z" fill="#FFA000"/>
</svg>
