<svg width="32" height="32" viewBox="0 0 32 32" fill="none" xmlns="http://www.w3.org/2000/svg">
<path d="M28 18.6667H26.6667V9.33337C26.6667 8.27251 26.2452 7.25509 25.4951 6.50495C24.7449 5.7548 23.7275 5.33337 22.6667 5.33337H9.33332C8.27246 5.33337 7.25504 5.7548 6.5049 6.50495C5.75475 7.25509 5.33332 8.27251 5.33332 9.33337V18.6667H3.99999C3.64637 18.6667 3.30723 18.8072 3.05718 19.0572C2.80713 19.3073 2.66666 19.6464 2.66666 20V22.6667C2.66666 23.7276 3.08808 24.745 3.83823 25.4951C4.58838 26.2453 5.60579 26.6667 6.66666 26.6667H25.3333C26.3942 26.6667 27.4116 26.2453 28.1618 25.4951C28.9119 24.745 29.3333 23.7276 29.3333 22.6667V20C29.3333 19.6464 29.1929 19.3073 28.9428 19.0572C28.6928 18.8072 28.3536 18.6667 28 18.6667ZM7.99999 9.33337C7.99999 8.97975 8.14047 8.64061 8.39051 8.39057C8.64056 8.14052 8.9797 8.00004 9.33332 8.00004H22.6667C23.0203 8.00004 23.3594 8.14052 23.6095 8.39057C23.8595 8.64061 24 8.97975 24 9.33337V18.6667H7.99999V9.33337ZM26.6667 22.6667C26.6667 23.0203 26.5262 23.3595 26.2761 23.6095C26.0261 23.8596 25.6869 24 25.3333 24H6.66666C6.31303 24 5.9739 23.8596 5.72385 23.6095C5.4738 23.3595 5.33332 23.0203 5.33332 22.6667V21.3334H26.6667V22.6667Z" fill="white"/>
</svg>
